PathFileType	4	(X/Y/Z)	SUBJ59_3_walk_RCNL2025.trc
DataRate	CameraRate	NumFrames	NumMarkers	Units	OrigDataRate	OrigDataStartFrame	OrigNumFrames
100	100	11	25	mm	100	77	306
Frame#	Time	R_Shoulder			L_Shoulder			C7			J_Notch			R_Elbow			L_Elbow			R_Wrist			L_Wrist			R_Asis			L_Asis			Sacral			Thoracic			Sternum			R_Thigh_Lateral			R_Knee_Lateral			R_Shank_Lateral			R_Ankle_Lateral			R_Heel			R_Toe			L_Thigh_Lateral			L_Knee_Lateral			L_Shank_Lateral			L_Ankle_Lateral			L_Heel			L_Toe		
		X1	Y1	Z1	X2	Y2	Z2	X3	Y3	Z3	X4	Y4	Z4	X5	Y5	Z5	X6	Y6	Z6	X7	Y7	Z7	X8	Y8	Z8	X9	Y9	Z9	X10	Y10	Z10	X11	Y11	Z11	X12	Y12	Z12	X13	Y13	Z13	X14	Y14	Z14	X15	Y15	Z15	X16	Y16	Z16	X17	Y17	Z17	X18	Y18	Z18	X19	Y19	Z19	X20	Y20	Z20	X21	Y21	Z21	X22	Y22	Z22	X23	Y23	Z23	X24	Y24	Z24	X25	Y25	Z25
77	0.76000000	-367.665741	1453.394287	131.706711	-389.866669	1487.955688	-268.326965	-469.505890	1554.176758	-61.821041	-309.899963	1455.993286	-72.206032	-373.202454	1142.961304	237.739944	-450.282623	1151.540527	-372.077850	-255.924873	890.422241	229.771034	-422.205551	886.251984	-369.054672	-327.144592	993.458984	47.404774	-314.435883	994.257080	-177.661011	-537.992371	1017.997070	-81.614624	-539.508972	1338.484619	-80.961754	-259.161987	1261.246582	-80.687256	-445.391815	601.752686	121.907951	-463.237640	511.306335	67.485252	-503.993469	310.067719	137.165436	-575.569885	71.595932	25.518700	-615.266785	63.257847	-19.320816	-415.062469	42.831352	-12.262061	-284.058167	621.330627	-277.348114	-252.046310	519.793579	-223.424942	-275.478241	327.354431	-283.319061	-287.773407	95.834846	-207.782898	-326.525177	72.302299	-149.670929	-132.115692	56.090950	-179.871796
78	0.77000000	-356.421936	1452.364624	130.731979	-379.266968	1485.525757	-269.343964	-458.423981	1552.771118	-62.840508	-299.019958	1453.993652	-73.075981	-359.544434	1142.813477	238.319290	-443.739716	1149.442261	-371.850891	-239.011063	891.765869	229.653946	-420.103577	883.743835	-369.116699	-317.559265	991.824890	47.914146	-303.813934	992.182312	-177.252899	-527.918091	1016.383362	-82.017204	-529.071899	1337.282471	-81.258041	-248.921677	1259.084473	-80.698433	-440.685699	601.275391	122.245049	-459.898621	511.231628	67.691307	-502.865143	310.298096	137.377167	-575.534851	72.113609	25.278996	-615.122253	63.929581	-19.704546	-414.963562	42.824776	-12.198909	-274.218262	618.645813	-276.813660	-240.650940	517.599548	-222.682831	-254.573105	324.428558	-283.273682	-255.157211	92.260498	-208.181747	-293.902710	66.957100	-150.716446	-98.056198	59.075317	-178.860825
79	0.78000000	-345.159485	1451.172363	129.691666	-368.544922	1483.001587	-270.406189	-447.286346	1551.262695	-63.928741	-288.082916	1451.845093	-74.007561	-345.859375	1142.565796	238.744843	-437.040955	1147.318481	-371.731781	-222.368454	892.912140	229.403511	-417.630707	881.275665	-369.130417	-307.929901	990.168945	48.360744	-293.094757	989.982422	-176.933838	-517.781250	1014.651978	-82.540359	-518.605286	1336.000366	-81.681473	-238.667389	1256.795776	-80.766891	-435.684937	600.785950	122.555130	-456.205078	511.149200	67.863739	-501.526520	310.569122	137.565262	-575.450806	72.710747	25.004723	-614.939941	64.720512	-20.124746	-414.859833	42.814457	-12.132064	-264.938080	615.495178	-276.500854	-229.548569	515.212402	-221.985245	-233.792618	321.844513	-283.286591	-223.380508	89.581886	-208.557266	-262.190308	62.702782	-151.768616	-65.181633	62.654385	-177.490585
80	0.79000000	-333.868774	1449.843262	128.589874	-357.697540	1480.406982	-271.516785	-436.086487	1549.673218	-65.088455	-277.081879	1449.585083	-75.000557	-332.167175	1142.232788	239.016861	-430.165558	1145.182861	-371.713165	-206.005539	893.864471	229.021332	-414.756714	878.856384	-369.099075	-298.253204	988.509155	48.738594	-282.307831	987.683716	-176.684143	-507.572296	1012.842224	-83.185951	-508.095642	1334.656128	-82.234436	-228.384720	1254.417603	-80.892830	-430.376129	600.291321	122.823784	-452.153168	511.056427	67.996414	-499.952545	310.886139	137.718262	-575.314575	73.400612	24.707628	-614.716370	65.649033	-20.563051	-414.747192	42.796692	-12.069941	-256.223328	611.919983	-276.350922	-218.698288	512.713867	-221.276642	-213.257156	319.679382	-283.301208	-192.676880	87.757286	-208.914948	-231.517242	59.510311	-152.741516	-33.682102	66.747597	-175.838257
81	0.80000000	-322.536652	1448.409912	127.426796	-346.726562	1477.770264	-272.682037	-424.819733	1548.028564	-66.322945	-266.012817	1447.256226	-76.055054	-318.492126	1141.828979	239.135742	-423.091248	1143.050293	-371.788452	-189.927536	894.630859	228.510048	-411.454605	876.495331	-369.028229	-288.527374	986.860596	49.044853	-271.489288	985.316711	-176.486008	-497.281982	1010.997070	-83.948151	-497.527771	1333.267578	-82.918694	-218.055710	1251.989746	-81.077766	-424.758362	599.799072	123.041496	-447.744843	510.953552	68.089592	-498.118622	311.251434	137.831787	-575.120728	74.194054	24.408758	-614.448242	66.728828	-20.990368	-414.626343	42.769352	-12.015536	-248.044449	608.001648	-276.284210	-208.057220	510.185242	-220.518814	-193.143280	317.966156	-283.267670	-163.283386	86.706192	-209.256149	-202.050751	57.285488	-153.580154	-3.742698	71.246811	-174.009537
82	0.81000000	-311.148621	1446.908813	126.198410	-335.637482	1475.121948	-273.910339	-413.485199	1546.357544	-67.634750	-254.875031	1444.903809	-77.171638	-304.861145	1141.370972	239.101074	-415.794373	1140.936279	-371.951965	-174.142570	895.221863	227.871529	-407.701279	874.204407	-368.924576	-278.749603	985.234985	49.281101	-260.659210	982.916199	-176.331070	-486.904083	1009.160706	-84.814430	-486.886353	1331.852783	-83.734291	-207.660843	1249.554321	-81.323792	-418.846924	599.319885	123.207932	-442.986023	510.844177	68.152939	-496.007141	311.667816	137.913681	-574.861938	75.100357	24.138498	-614.131226	67.968880	-21.369305	-414.500061	42.732265	-11.965903	-240.298737	603.875305	-276.215576	-197.575256	507.702301	-219.701370	-173.662918	316.682770	-283.152313	-135.436966	86.306702	-209.565170	-174.011917	55.872902	-154.261719	24.461494	76.005730	-172.123871
83	0.82000000	-299.692108	1445.378296	124.896820	-324.438629	1472.493896	-275.210236	-402.084045	1544.689697	-69.025948	-243.668579	1442.573486	-78.351364	-291.301239	1140.877197	238.910324	-408.250214	1138.856079	-372.197357	-158.664513	895.649597	227.107262	-403.478058	871.999420	-368.798431	-268.913971	983.640747	49.452415	-249.812622	980.520386	-176.220474	-476.435791	1007.375977	-85.768410	-476.156738	1330.430786	-84.679222	-197.179779	1247.152588	-81.632469	-412.671326	598.868408	123.332245	-437.885651	510.735748	68.203590	-493.610260	312.140961	137.984177	-574.529236	76.129021	23.932547	-613.760071	69.376228	-21.660278	-414.370728	42.687023	-11.915732	-232.784348	599.728149	-276.075806	-187.191025	505.331940	-218.842026	-155.033356	315.754272	-282.940369	-109.369492	86.397049	-209.801758	-147.643265	55.076061	-154.755936	50.768269	80.828781	-170.297668
84	0.83000000	-288.159210	1443.856323	123.511192	-313.139740	1469.917847	-276.589508	-390.616241	1543.053467	-70.499825	-232.390579	1440.308228	-79.597397	-277.838684	1140.369751	238.559708	-400.433197	1136.825562	-372.517792	-143.512287	895.929077	226.219955	-398.772537	869.897491	-368.664841	-259.009155	982.084351	49.564537	-238.930389	978.168152	-176.156387	-465.874512	1005.680725	-86.793762	-465.324432	1329.022583	-85.749237	-186.591263	1244.824219	-82.005829	-406.264893	598.459534	123.428864	-432.454987	510.639435	68.259537	-490.929443	312.680786	138.070847	-574.114502	77.292168	23.824923	-613.328613	70.960281	-21.828707	-414.239014	42.636436	-11.860729	-225.208374	595.776367	-275.825867	-176.832565	503.128723	-217.978790	-137.446609	315.064880	-282.628662	-85.302200	86.781715	-209.902802	-123.178764	54.682816	-155.003296	75.028809	85.466446	-168.628281
85	0.84000000	-276.548157	1442.382080	122.030548	-301.750031	1467.424683	-278.054993	-379.079132	1541.474365	-72.062111	-221.033630	1438.145630	-80.916245	-264.501343	1139.875244	238.047195	-392.317749	1134.859863	-372.908081	-128.710056	896.080994	225.214706	-393.578888	867.912476	-368.540787	-249.018127	980.571655	49.621819	-227.991211	975.897156	-176.136581	-455.214569	1004.103333	-87.877571	-454.375122	1327.649536	-86.937462	-175.874084	1242.604370	-82.447342	-399.654114	598.106506	123.512108	-426.710052	510.568573	68.332420	-487.973297	313.301727	138.200516	-573.610413	78.605820	23.841623	-612.829895	72.734818	-21.849585	-414.103699	42.583759	-11.798224	-217.230621	592.227600	-275.458252	-166.422287	501.132477	-217.157043	-121.052124	314.474792	-282.214935	-63.434219	87.246864	-209.794235	-100.833336	54.489166	-154.932419	97.107674	89.623291	-167.179596
86	0.85000000	-264.862579	1440.997192	120.448189	-290.275665	1465.041870	-279.611969	-367.468018	1539.973755	-73.720436	-209.586670	1436.115967	-82.316063	-251.322021	1139.424561	237.374634	-383.880035	1132.972900	-373.366394	-114.289841	896.133270	224.099937	-387.891647	866.051422	-368.443375	-238.920273	979.108643	49.626732	-216.975418	973.742371	-176.155853	-444.447296	1002.660767	-89.010902	-443.294891	1326.330566	-88.234505	-165.009262	1240.521606	-82.961365	-392.856140	597.823242	123.591797	-420.673157	510.537598	68.425430	-484.753021	314.021027	138.390900	-573.009033	80.087997	23.996826	-612.255188	74.716606	-21.709641	-413.961365	42.532150	-11.726124	-208.525131	589.248535	-274.991333	-155.880814	499.368439	-216.415024	-105.953339	313.839050	-281.691650	-43.922310	87.587997	-209.412033	-80.796234	54.316017	-154.492172	116.886490	92.979362	-165.969986
87	0.86000000	-253.108856	1439.744873	118.764938	-278.717712	1462.791260	-281.263824	-355.776764	1538.566650	-75.483582	-198.037155	1434.241211	-83.803642	-238.337936	1139.046265	236.548126	-375.100342	1131.174805	-373.892883	-100.292217	896.119324	222.888351	-381.702087	864.315613	-368.389282	-228.694611	977.702271	49.579845	-205.864197	971.735657	-176.208618	-433.563141	1001.360291	-90.185959	-432.070099	1325.081665	-89.629372	-153.979980	1238.597412	-83.553780	-385.881287	597.626831	123.671257	-414.368347	510.561340	68.537422	-481.278107	314.856812	138.646194	-572.301392	81.755432	24.292892	-611.593506	76.923004	-21.407963	-413.807007	42.484703	-11.642239	-198.840897	586.946106	-274.461639	-145.128784	497.848999	-215.773712	-92.200974	313.027740	-281.045807	-26.860012	87.639336	-208.725372	-63.217075	54.022179	-153.678680	134.275345	95.222183	-164.965591
